<mxfile host="app.diagrams.net" modified="2021-04-28T15:46:40.356Z" agent="5.0 (Windows NT 10.0; Win64; x64) AppleWebKit/537.36 (KHTML, like Gecko) Chrome/89.0.4389.128 Safari/537.36 OPR/75.0.3969.243" etag="QyClRye1L8hSp83mpyyr" version="14.6.6" type="github">
  <diagram id="DGqqN-S8QnjWxsb0YwZN" name="Page-1">
    <mxGraphModel dx="742" dy="438" grid="1" gridSize="10" guides="1" tooltips="1" connect="1" arrows="1" fold="1" page="1" pageScale="1" pageWidth="827" pageHeight="1169" math="0" shadow="0">
      <root>
        <mxCell id="0" />
        <mxCell id="1" parent="0" />
        <mxCell id="ApOforBmoYvRUDO0L2X7-18" style="edgeStyle=orthogonalEdgeStyle;rounded=0;orthogonalLoop=1;jettySize=auto;html=1;exitX=0.5;exitY=1;exitDx=0;exitDy=0;" edge="1" parent="1" source="ApOforBmoYvRUDO0L2X7-1" target="ApOforBmoYvRUDO0L2X7-3">
          <mxGeometry relative="1" as="geometry" />
        </mxCell>
        <mxCell id="ApOforBmoYvRUDO0L2X7-1" value="НАЧАЛО" style="ellipse;whiteSpace=wrap;html=1;" vertex="1" parent="1">
          <mxGeometry x="320" y="40" width="120" height="40" as="geometry" />
        </mxCell>
        <mxCell id="ApOforBmoYvRUDO0L2X7-2" value="КОНЕЦ" style="ellipse;whiteSpace=wrap;html=1;" vertex="1" parent="1">
          <mxGeometry x="320" y="635" width="120" height="40" as="geometry" />
        </mxCell>
        <mxCell id="ApOforBmoYvRUDO0L2X7-11" style="edgeStyle=orthogonalEdgeStyle;rounded=0;orthogonalLoop=1;jettySize=auto;html=1;exitX=0.5;exitY=1;exitDx=0;exitDy=0;entryX=0.5;entryY=0;entryDx=0;entryDy=0;" edge="1" parent="1" source="ApOforBmoYvRUDO0L2X7-3" target="ApOforBmoYvRUDO0L2X7-4">
          <mxGeometry relative="1" as="geometry" />
        </mxCell>
        <mxCell id="ApOforBmoYvRUDO0L2X7-3" value="Вывод&lt;br&gt;&quot;Введите два числа&quot;" style="shape=parallelogram;perimeter=parallelogramPerimeter;whiteSpace=wrap;html=1;fixedSize=1;" vertex="1" parent="1">
          <mxGeometry x="310" y="120" width="140" height="60" as="geometry" />
        </mxCell>
        <mxCell id="ApOforBmoYvRUDO0L2X7-12" style="edgeStyle=orthogonalEdgeStyle;rounded=0;orthogonalLoop=1;jettySize=auto;html=1;exitX=0.5;exitY=1;exitDx=0;exitDy=0;entryX=0.5;entryY=0;entryDx=0;entryDy=0;" edge="1" parent="1" source="ApOforBmoYvRUDO0L2X7-4" target="ApOforBmoYvRUDO0L2X7-5">
          <mxGeometry relative="1" as="geometry" />
        </mxCell>
        <mxCell id="ApOforBmoYvRUDO0L2X7-4" value="Ввод&lt;br&gt;a, b" style="shape=parallelogram;perimeter=parallelogramPerimeter;whiteSpace=wrap;html=1;fixedSize=1;" vertex="1" parent="1">
          <mxGeometry x="320" y="220" width="120" height="60" as="geometry" />
        </mxCell>
        <mxCell id="ApOforBmoYvRUDO0L2X7-13" style="edgeStyle=orthogonalEdgeStyle;rounded=0;orthogonalLoop=1;jettySize=auto;html=1;exitX=1;exitY=0.5;exitDx=0;exitDy=0;entryX=0.5;entryY=0;entryDx=0;entryDy=0;" edge="1" parent="1" source="ApOforBmoYvRUDO0L2X7-5" target="ApOforBmoYvRUDO0L2X7-8">
          <mxGeometry relative="1" as="geometry" />
        </mxCell>
        <mxCell id="ApOforBmoYvRUDO0L2X7-15" style="edgeStyle=orthogonalEdgeStyle;rounded=0;orthogonalLoop=1;jettySize=auto;html=1;exitX=0;exitY=0.5;exitDx=0;exitDy=0;entryX=0.5;entryY=0;entryDx=0;entryDy=0;" edge="1" parent="1" source="ApOforBmoYvRUDO0L2X7-5" target="ApOforBmoYvRUDO0L2X7-10">
          <mxGeometry relative="1" as="geometry" />
        </mxCell>
        <mxCell id="ApOforBmoYvRUDO0L2X7-5" value="b &amp;lt;&amp;gt; 0" style="rhombus;whiteSpace=wrap;html=1;" vertex="1" parent="1">
          <mxGeometry x="320" y="320" width="120" height="60" as="geometry" />
        </mxCell>
        <mxCell id="ApOforBmoYvRUDO0L2X7-6" value="Да" style="text;html=1;align=center;verticalAlign=middle;resizable=0;points=[];autosize=1;strokeColor=none;" vertex="1" parent="1">
          <mxGeometry x="285" y="320" width="30" height="20" as="geometry" />
        </mxCell>
        <mxCell id="ApOforBmoYvRUDO0L2X7-7" value="Нет" style="text;html=1;align=center;verticalAlign=middle;resizable=0;points=[];autosize=1;strokeColor=none;" vertex="1" parent="1">
          <mxGeometry x="440" y="320" width="40" height="20" as="geometry" />
        </mxCell>
        <mxCell id="ApOforBmoYvRUDO0L2X7-14" style="edgeStyle=orthogonalEdgeStyle;rounded=0;orthogonalLoop=1;jettySize=auto;html=1;exitX=0.5;exitY=1;exitDx=0;exitDy=0;entryX=0.5;entryY=0;entryDx=0;entryDy=0;" edge="1" parent="1" source="ApOforBmoYvRUDO0L2X7-8" target="ApOforBmoYvRUDO0L2X7-9">
          <mxGeometry relative="1" as="geometry" />
        </mxCell>
        <mxCell id="ApOforBmoYvRUDO0L2X7-8" value="с = а / b" style="rounded=0;whiteSpace=wrap;html=1;" vertex="1" parent="1">
          <mxGeometry x="430" y="410" width="120" height="60" as="geometry" />
        </mxCell>
        <mxCell id="ApOforBmoYvRUDO0L2X7-17" style="edgeStyle=orthogonalEdgeStyle;rounded=0;orthogonalLoop=1;jettySize=auto;html=1;exitX=0.5;exitY=1;exitDx=0;exitDy=0;" edge="1" parent="1" source="ApOforBmoYvRUDO0L2X7-9">
          <mxGeometry relative="1" as="geometry">
            <mxPoint x="380" y="635" as="targetPoint" />
            <Array as="points">
              <mxPoint x="490" y="590" />
              <mxPoint x="380" y="590" />
            </Array>
          </mxGeometry>
        </mxCell>
        <mxCell id="ApOforBmoYvRUDO0L2X7-9" value="вывод&amp;nbsp;&lt;br&gt;с" style="shape=parallelogram;perimeter=parallelogramPerimeter;whiteSpace=wrap;html=1;fixedSize=1;" vertex="1" parent="1">
          <mxGeometry x="430" y="495" width="120" height="60" as="geometry" />
        </mxCell>
        <mxCell id="ApOforBmoYvRUDO0L2X7-16" style="edgeStyle=orthogonalEdgeStyle;rounded=0;orthogonalLoop=1;jettySize=auto;html=1;exitX=0.5;exitY=1;exitDx=0;exitDy=0;entryX=0.5;entryY=0;entryDx=0;entryDy=0;" edge="1" parent="1" source="ApOforBmoYvRUDO0L2X7-10" target="ApOforBmoYvRUDO0L2X7-2">
          <mxGeometry relative="1" as="geometry">
            <Array as="points">
              <mxPoint x="280" y="590" />
              <mxPoint x="380" y="590" />
            </Array>
          </mxGeometry>
        </mxCell>
        <mxCell id="ApOforBmoYvRUDO0L2X7-10" value="Вывод&lt;br&gt;&quot;нет решений&quot;" style="shape=parallelogram;perimeter=parallelogramPerimeter;whiteSpace=wrap;html=1;fixedSize=1;" vertex="1" parent="1">
          <mxGeometry x="220" y="410" width="120" height="60" as="geometry" />
        </mxCell>
      </root>
    </mxGraphModel>
  </diagram>
</mxfile>
